<?xml version="1.0" encoding="UTF-8" standalone="no"?>
<!-- Created with Inkscape (http://www.inkscape.org/) -->

<svg
   xmlns:dc="http://purl.org/dc/elements/1.1/"
   xmlns:cc="http://creativecommons.org/ns#"
   xmlns:rdf="http://www.w3.org/1999/02/22-rdf-syntax-ns#"
   xmlns:svg="http://www.w3.org/2000/svg"
   xmlns="http://www.w3.org/2000/svg"
   xmlns:sodipodi="http://sodipodi.sourceforge.net/DTD/sodipodi-0.dtd"
   xmlns:inkscape="http://www.inkscape.org/namespaces/inkscape"
   width="159.33702mm"
   height="88.383759mm"
   viewBox="0 0 159.33702 88.383758"
   version="1.1"
   id="svg8"
   inkscape:version="0.92.1 r15371"
   sodipodi:docname="b2b_3.svg">
  <defs
     id="defs2" />
  <sodipodi:namedview
     id="base"
     pagecolor="#ffffff"
     bordercolor="#666666"
     borderopacity="1.0"
     inkscape:pageopacity="0.0"
     inkscape:pageshadow="2"
     inkscape:zoom="1.4"
     inkscape:cx="251.68663"
     inkscape:cy="202.64291"
     inkscape:document-units="mm"
     inkscape:current-layer="g4495"
     showgrid="false"
     fit-margin-top="0"
     fit-margin-left="0"
     fit-margin-right="0"
     fit-margin-bottom="0"
     inkscape:window-width="1920"
     inkscape:window-height="1141"
     inkscape:window-x="0"
     inkscape:window-y="26"
     inkscape:window-maximized="1" />
  <metadata
     id="metadata5">
    <rdf:RDF>
      <cc:Work
         rdf:about="">
        <dc:format>image/svg+xml</dc:format>
        <dc:type
           rdf:resource="http://purl.org/dc/dcmitype/StillImage" />
        <dc:title></dc:title>
      </cc:Work>
    </rdf:RDF>
  </metadata>
  <g
     inkscape:label="Layer 1"
     inkscape:groupmode="layer"
     id="layer1"
     transform="translate(-37.504106,-98.202971)">
    <g
       transform="matrix(0.35277777,0,0,-0.35277777,37.505517,186.58779)"
       inkscape:label="b2b_2"
       id="g4493">
      <g
         id="g4495">
        <g
           transform="matrix(1,0,0,-1,0,244.35466)"
           id="g4497">
          <path
             inkscape:connector-curvature="0"
             id="path4499"
             style="fill:#ffffff;fill-opacity:1;fill-rule:evenodd;stroke:#000000;stroke-width:0.69993597;stroke-linecap:butt;stroke-linejoin:miter;stroke-miterlimit:4;stroke-dasharray:none;stroke-opacity:1"
             d="m 360.973,121.293 c 0,62.133 -54.633,112.5 -122.024,112.5 -67.39,0 -122.023,-50.367 -122.023,-112.5 0,-62.133 54.633,-112.5 122.023,-112.5 67.391,0 122.024,50.367 122.024,112.5 z" />
        </g>
        <path
           inkscape:connector-curvature="0"
           id="path4501"
           style="fill:#000000;fill-opacity:1;fill-rule:nonzero;stroke:none"
           d="m 285.102,245.351 v -1.672 c -0.5,0.281 -1.008,0.488 -1.516,0.625 -0.512,0.133 -1.027,0.203 -1.547,0.203 -1.168,0 -2.074,-0.371 -2.719,-1.109 -0.648,-0.731 -0.968,-1.766 -0.968,-3.11 0,-1.336 0.32,-2.371 0.968,-3.109 0.645,-0.742 1.551,-1.109 2.719,-1.109 0.52,0 1.035,0.066 1.547,0.203 0.508,0.144 1.016,0.359 1.516,0.64 v -1.656 c -0.5,-0.242 -1.024,-0.418 -1.563,-0.531 -0.531,-0.114 -1.101,-0.172 -1.703,-0.172 -1.648,0 -2.953,0.516 -3.922,1.547 -0.969,1.039 -1.453,2.437 -1.453,4.187 0,1.789 0.488,3.196 1.469,4.219 0.976,1.02 2.32,1.531 4.031,1.531 0.551,0 1.086,-0.058 1.609,-0.172 0.532,-0.117 1.039,-0.289 1.532,-0.515 z" />
        <path
           inkscape:connector-curvature="0"
           id="path4503"
           style="fill:#000000;fill-opacity:1;fill-rule:nonzero;stroke:none"
           d="m 288.027,250.038 h 1.797 v -15.203 h -1.797 z" />
        <path
           inkscape:connector-curvature="0"
           id="path4505"
           style="fill:#000000;fill-opacity:1;fill-rule:nonzero;stroke:none"
           d="m 293.27,239.148 v 6.625 h 1.796 v -6.547 c 0,-1.043 0.196,-1.824 0.594,-2.344 0.406,-0.512 1.016,-0.766 1.828,-0.766 0.969,0 1.735,0.305 2.297,0.922 0.563,0.625 0.844,1.469 0.844,2.532 v 6.203 h 1.797 v -10.938 h -1.797 v 1.688 c -0.438,-0.668 -0.945,-1.164 -1.516,-1.485 -0.574,-0.32 -1.246,-0.484 -2.015,-0.484 -1.25,0 -2.203,0.391 -2.86,1.172 -0.648,0.781 -0.968,1.922 -0.968,3.422 z m 4.515,6.89 z" />
        <path
           inkscape:connector-curvature="0"
           id="path4507"
           style="fill:#000000;fill-opacity:1;fill-rule:nonzero;stroke:none"
           d="m 312.859,245.445 v -1.688 c -0.511,0.258 -1.043,0.453 -1.593,0.578 -0.543,0.133 -1.106,0.203 -1.688,0.203 -0.898,0 -1.57,-0.14 -2.016,-0.422 -0.437,-0.273 -0.656,-0.679 -0.656,-1.218 0,-0.418 0.156,-0.746 0.469,-0.985 0.32,-0.242 0.961,-0.468 1.922,-0.687 l 0.625,-0.125 c 1.269,-0.281 2.172,-0.672 2.703,-1.172 0.539,-0.492 0.813,-1.184 0.813,-2.078 0,-1.012 -0.403,-1.813 -1.204,-2.406 -0.804,-0.594 -1.906,-0.891 -3.312,-0.891 -0.586,0 -1.195,0.058 -1.828,0.172 -0.637,0.113 -1.309,0.285 -2.016,0.515 v 1.844 c 0.664,-0.344 1.32,-0.605 1.969,-0.781 0.644,-0.168 1.285,-0.25 1.922,-0.25 0.843,0 1.488,0.144 1.937,0.437 0.457,0.289 0.688,0.696 0.688,1.219 0,0.488 -0.168,0.863 -0.5,1.125 -0.324,0.258 -1.043,0.508 -2.156,0.75 l -0.626,0.156 c -1.117,0.227 -1.921,0.582 -2.421,1.063 -0.493,0.488 -0.735,1.16 -0.735,2.016 0,1.019 0.364,1.812 1.094,2.375 0.727,0.562 1.766,0.843 3.109,0.843 0.664,0 1.289,-0.054 1.875,-0.156 0.582,-0.094 1.125,-0.242 1.625,-0.437 z" />
        <path
           inkscape:connector-curvature="0"
           id="path4509"
           style="fill:#000000;fill-opacity:1;fill-rule:nonzero;stroke:none"
           d="m 317.867,248.882 v -3.109 h 3.703 v -1.391 h -3.703 v -5.937 c 0,-0.899 0.117,-1.477 0.36,-1.735 0.25,-0.25 0.75,-0.375 1.5,-0.375 h 1.843 v -1.5 h -1.843 c -1.387,0 -2.344,0.254 -2.875,0.766 -0.524,0.519 -0.782,1.469 -0.782,2.844 v 5.937 h -1.328 v 1.391 h 1.328 v 3.109 z" />
        <path
           inkscape:connector-curvature="0"
           id="path4511"
           style="fill:#000000;fill-opacity:1;fill-rule:nonzero;stroke:none"
           d="m 333.133,240.757 v -0.875 h -8.25 c 0.07,-1.242 0.441,-2.187 1.109,-2.844 0.664,-0.648 1.598,-0.968 2.797,-0.968 0.688,0 1.352,0.082 2,0.25 0.645,0.175 1.289,0.429 1.938,0.765 v -1.687 c -0.649,-0.282 -1.309,-0.493 -1.985,-0.625 -0.68,-0.145 -1.367,-0.219 -2.062,-0.219 -1.75,0 -3.137,0.504 -4.157,1.516 -1.011,1.019 -1.515,2.394 -1.515,4.125 0,1.789 0.476,3.21 1.437,4.265 0.969,1.051 2.274,1.578 3.922,1.578 1.469,0 2.629,-0.476 3.485,-1.422 0.851,-0.949 1.281,-2.234 1.281,-3.859 z m -1.797,0.531 c -0.012,0.977 -0.289,1.758 -0.828,2.344 -0.531,0.582 -1.242,0.875 -2.125,0.875 -1,0 -1.805,-0.281 -2.406,-0.844 -0.606,-0.562 -0.954,-1.359 -1.047,-2.39 z" />
        <path
           inkscape:connector-curvature="0"
           id="path4513"
           style="fill:#000000;fill-opacity:1;fill-rule:nonzero;stroke:none"
           d="m 342.164,244.101 c -0.199,0.113 -0.418,0.195 -0.656,0.25 -0.242,0.051 -0.5,0.078 -0.781,0.078 -1.024,0 -1.805,-0.328 -2.344,-0.984 -0.543,-0.657 -0.813,-1.606 -0.813,-2.844 v -5.766 h -1.812 v 10.938 h 1.812 v -1.703 c 0.375,0.664 0.864,1.16 1.469,1.484 0.602,0.32 1.344,0.484 2.219,0.484 0.113,0 0.242,-0.011 0.39,-0.031 0.157,-0.012 0.329,-0.031 0.516,-0.062 z" />
        <path
           inkscape:connector-curvature="0"
           id="path4515"
           style="fill:#000000;fill-opacity:1;fill-rule:nonzero;stroke:none"
           d="m 345.953,247.788 v -5.468 h 2.485 c 0.914,0 1.624,0.234 2.124,0.703 0.5,0.476 0.75,1.156 0.75,2.031 0,0.875 -0.25,1.547 -0.75,2.016 -0.5,0.476 -1.21,0.718 -2.124,0.718 z m -1.969,1.625 h 4.454 c 1.632,0 2.867,-0.371 3.703,-1.109 0.832,-0.742 1.25,-1.824 1.25,-3.25 0,-1.438 -0.418,-2.527 -1.25,-3.266 -0.836,-0.73 -2.071,-1.093 -3.703,-1.093 h -2.485 v -5.86 h -1.969 z" />
        <path
           inkscape:connector-curvature="0"
           id="path4517"
           style="fill:#000000;fill-opacity:1;fill-rule:nonzero;stroke:none"
           d="m 364.816,241.445 v -6.61 h -1.796 v 6.547 c 0,1.031 -0.204,1.801 -0.61,2.313 -0.406,0.519 -1.012,0.781 -1.812,0.781 -0.981,0 -1.75,-0.313 -2.313,-0.938 -0.555,-0.617 -0.828,-1.453 -0.828,-2.515 v -6.188 h -1.812 v 15.203 h 1.812 v -5.968 c 0.426,0.656 0.93,1.144 1.516,1.468 0.582,0.332 1.254,0.5 2.015,0.5 1.258,0 2.211,-0.39 2.86,-1.172 0.644,-0.773 0.968,-1.914 0.968,-3.421 z" />
        <path
           inkscape:connector-curvature="0"
           id="path4519"
           style="fill:#000000;fill-opacity:1;fill-rule:nonzero;stroke:none"
           d="m 368.156,245.773 h 1.797 v -10.938 h -1.797 z m 0,4.265 h 1.797 v -2.281 h -1.797 z" />
        <path
           inkscape:connector-curvature="0"
           id="path4521"
           style="fill:#000000;fill-opacity:1;fill-rule:nonzero;stroke:none"
           d="m 377.898,250.007 c -0.875,-1.492 -1.527,-2.969 -1.953,-4.437 -0.418,-1.469 -0.625,-2.954 -0.625,-4.454 0,-1.5 0.211,-2.992 0.641,-4.468 0.426,-1.481 1.07,-2.961 1.937,-4.453 h -1.562 c -0.981,1.531 -1.715,3.035 -2.203,4.515 -0.481,1.477 -0.719,2.945 -0.719,4.406 0,1.446 0.238,2.907 0.719,4.375 0.488,1.477 1.222,2.985 2.203,4.516 z" />
        <path
           inkscape:connector-curvature="0"
           id="path4523"
           style="fill:#000000;fill-opacity:1;fill-rule:nonzero;stroke:none"
           d="m 383,248.882 v -3.109 h 3.703 v -1.391 H 383 v -5.937 c 0,-0.899 0.117,-1.477 0.359,-1.735 0.25,-0.25 0.75,-0.375 1.5,-0.375 h 1.844 v -1.5 h -1.844 c -1.386,0 -2.343,0.254 -2.875,0.766 -0.523,0.519 -0.781,1.469 -0.781,2.844 v 5.937 h -1.328 v 1.391 h 1.328 v 3.109 z" />
        <path
           inkscape:connector-curvature="0"
           id="path4525"
           style="fill:#000000;fill-opacity:1;fill-rule:nonzero;stroke:none"
           d="m 393.891,240.335 c -1.461,0 -2.469,-0.168 -3.032,-0.5 -0.554,-0.336 -0.828,-0.902 -0.828,-1.703 0,-0.637 0.207,-1.141 0.625,-1.516 0.426,-0.375 1,-0.562 1.719,-0.562 1,0 1.797,0.351 2.391,1.062 0.601,0.707 0.906,1.645 0.906,2.813 v 0.406 z m 3.578,0.735 v -6.235 h -1.797 v 1.656 c -0.406,-0.656 -0.918,-1.148 -1.531,-1.468 -0.618,-0.313 -1.368,-0.469 -2.25,-0.469 -1.118,0 -2.008,0.312 -2.672,0.937 -0.657,0.633 -0.985,1.477 -0.985,2.532 0,1.226 0.411,2.156 1.235,2.781 0.82,0.625 2.051,0.937 3.687,0.937 h 2.516 v 0.172 c 0,0.832 -0.274,1.473 -0.813,1.922 -0.543,0.445 -1.308,0.672 -2.297,0.672 -0.624,0 -1.234,-0.074 -1.828,-0.219 -0.586,-0.148 -1.152,-0.371 -1.703,-0.672 v 1.657 c 0.657,0.257 1.289,0.453 1.907,0.578 0.624,0.125 1.226,0.187 1.812,0.187 1.582,0 2.766,-0.414 3.547,-1.234 0.781,-0.824 1.172,-2.07 1.172,-3.734 z" />
        <path
           inkscape:connector-curvature="0"
           id="path4527"
           style="fill:#000000;fill-opacity:1;fill-rule:nonzero;stroke:none"
           d="m 408.121,240.429 c 0,1.301 -0.273,2.312 -0.812,3.031 -0.532,0.719 -1.282,1.078 -2.25,1.078 -0.961,0 -1.711,-0.359 -2.25,-1.078 -0.543,-0.719 -0.813,-1.73 -0.813,-3.031 0,-1.293 0.27,-2.297 0.813,-3.016 0.539,-0.718 1.289,-1.078 2.25,-1.078 0.968,0 1.718,0.36 2.25,1.078 0.539,0.719 0.812,1.723 0.812,3.016 z m 1.797,-4.234 c 0,-1.864 -0.414,-3.25 -1.234,-4.157 -0.825,-0.906 -2.09,-1.359 -3.797,-1.359 -0.637,0 -1.235,0.047 -1.797,0.141 -0.555,0.093 -1.094,0.242 -1.625,0.437 v 1.734 c 0.531,-0.281 1.051,-0.488 1.562,-0.625 0.508,-0.132 1.035,-0.203 1.578,-0.203 1.176,0 2.055,0.309 2.641,0.922 0.582,0.617 0.875,1.543 0.875,2.781 v 0.891 c -0.367,-0.648 -0.84,-1.133 -1.422,-1.453 -0.586,-0.313 -1.277,-0.469 -2.078,-0.469 -1.344,0 -2.43,0.508 -3.25,1.531 -0.812,1.02 -1.219,2.375 -1.219,4.063 0,1.695 0.407,3.055 1.219,4.078 0.82,1.02 1.906,1.531 3.25,1.531 0.801,0 1.492,-0.164 2.078,-0.484 0.582,-0.313 1.055,-0.793 1.422,-1.438 v 1.657 h 1.797 z" />
        <path
           inkscape:connector-curvature="0"
           id="path4529"
           style="fill:#000000;fill-opacity:1;fill-rule:nonzero;stroke:none"
           d="m 413.082,250.007 h 1.563 c 0.968,-1.531 1.691,-3.039 2.171,-4.516 0.489,-1.468 0.735,-2.929 0.735,-4.375 0,-1.461 -0.246,-2.929 -0.735,-4.406 -0.48,-1.48 -1.203,-2.984 -2.171,-4.515 h -1.563 c 0.863,1.492 1.508,2.972 1.938,4.453 0.425,1.476 0.64,2.968 0.64,4.468 0,1.5 -0.215,2.985 -0.64,4.454 -0.43,1.468 -1.075,2.945 -1.938,4.437 z" />
        <g
           transform="matrix(-0.9767647,0,0,-0.99920217,472.68186,244.36993)"
           id="g4531">
          <path
             inkscape:connector-curvature="0"
             id="path4533"
             style="fill:none;stroke:#008000;stroke-width:0.78037298;stroke-linecap:butt;stroke-linejoin:miter;stroke-miterlimit:4;stroke-dasharray:none;stroke-opacity:1"
             d="M 286.008,16.523 192.629,225.414" />
        </g>
        <path
           inkscape:connector-curvature="0"
           id="path4535"
           style="fill:#000000;fill-opacity:1;fill-rule:nonzero;stroke:none"
           d="m 291.387,14.675 v -1.672 c -0.5,0.281 -1.008,0.488 -1.516,0.625 -0.512,0.133 -1.027,0.203 -1.547,0.203 -1.168,0 -2.074,-0.371 -2.719,-1.109 -0.648,-0.731 -0.968,-1.766 -0.968,-3.11 0,-1.335 0.32,-2.371 0.968,-3.109 0.645,-0.742 1.551,-1.109 2.719,-1.109 0.52,0 1.035,0.066 1.547,0.203 0.508,0.144 1.016,0.359 1.516,0.64 V 4.581 c -0.5,-0.242 -1.024,-0.418 -1.563,-0.531 -0.531,-0.113 -1.101,-0.172 -1.703,-0.172 -1.648,0 -2.953,0.516 -3.922,1.547 -0.969,1.039 -1.453,2.437 -1.453,4.187 0,1.79 0.488,3.196 1.469,4.219 0.976,1.02 2.32,1.531 4.031,1.531 0.551,0 1.086,-0.058 1.609,-0.171 0.532,-0.118 1.04,-0.289 1.532,-0.516 z" />
        <path
           inkscape:connector-curvature="0"
           id="path4537"
           style="fill:#000000;fill-opacity:1;fill-rule:nonzero;stroke:none"
           d="m 294.543,19.362 h 1.797 V 4.159 h -1.797 z" />
        <path
           inkscape:connector-curvature="0"
           id="path4539"
           style="fill:#000000;fill-opacity:1;fill-rule:nonzero;stroke:none"
           d="m 299.902,8.472 v 6.625 h 1.797 V 8.55 c 0,-1.043 0.196,-1.824 0.594,-2.344 0.406,-0.511 1.016,-0.765 1.828,-0.765 0.969,0 1.734,0.304 2.297,0.921 0.562,0.625 0.844,1.469 0.844,2.532 v 6.203 h 1.797 V 4.159 h -1.797 v 1.688 c -0.438,-0.668 -0.946,-1.164 -1.516,-1.485 -0.574,-0.32 -1.246,-0.484 -2.016,-0.484 -1.25,0 -2.203,0.391 -2.859,1.172 -0.648,0.781 -0.969,1.922 -0.969,3.422 z m 4.516,6.89 z" />
        <path
           inkscape:connector-curvature="0"
           id="path4541"
           style="fill:#000000;fill-opacity:1;fill-rule:nonzero;stroke:none"
           d="m 319.754,14.769 v -1.688 c -0.512,0.258 -1.043,0.453 -1.594,0.578 -0.543,0.133 -1.105,0.203 -1.687,0.203 -0.899,0 -1.571,-0.14 -2.016,-0.421 -0.437,-0.274 -0.656,-0.68 -0.656,-1.219 0,-0.418 0.156,-0.746 0.469,-0.985 0.32,-0.242 0.96,-0.468 1.921,-0.687 l 0.625,-0.125 c 1.27,-0.281 2.172,-0.672 2.704,-1.172 0.539,-0.492 0.812,-1.183 0.812,-2.078 0,-1.012 -0.402,-1.813 -1.203,-2.406 -0.805,-0.594 -1.906,-0.891 -3.313,-0.891 -0.586,0 -1.195,0.059 -1.828,0.172 -0.636,0.113 -1.308,0.285 -2.015,0.516 v 1.843 c 0.664,-0.343 1.32,-0.605 1.968,-0.781 0.645,-0.168 1.286,-0.25 1.922,-0.25 0.844,0 1.489,0.145 1.938,0.438 0.457,0.289 0.687,0.695 0.687,1.218 0,0.489 -0.168,0.864 -0.5,1.125 -0.324,0.258 -1.043,0.508 -2.156,0.75 l -0.625,0.157 c -1.117,0.226 -1.922,0.582 -2.422,1.062 -0.492,0.488 -0.734,1.16 -0.734,2.016 0,1.019 0.363,1.812 1.094,2.375 0.726,0.562 1.765,0.843 3.109,0.843 0.664,0 1.289,-0.054 1.875,-0.156 0.582,-0.094 1.125,-0.242 1.625,-0.437 z" />
        <path
           inkscape:connector-curvature="0"
           id="path4543"
           style="fill:#000000;fill-opacity:1;fill-rule:nonzero;stroke:none"
           d="m 324.98,18.206 v -3.109 h 3.704 V 13.706 H 324.98 V 7.769 c 0,-0.899 0.118,-1.477 0.36,-1.735 0.25,-0.25 0.75,-0.375 1.5,-0.375 h 1.844 v -1.5 h -1.844 c -1.387,0 -2.344,0.254 -2.875,0.766 -0.524,0.52 -0.781,1.469 -0.781,2.844 v 5.937 h -1.329 v 1.391 h 1.329 v 3.109 z" />
        <path
           inkscape:connector-curvature="0"
           id="path4545"
           style="fill:#000000;fill-opacity:1;fill-rule:nonzero;stroke:none"
           d="M 340.41,10.081 V 9.206 h -8.25 c 0.07,-1.242 0.442,-2.187 1.11,-2.844 0.664,-0.648 1.597,-0.968 2.796,-0.968 0.688,0 1.352,0.082 2,0.25 0.645,0.176 1.289,0.429 1.938,0.765 V 4.722 c -0.649,-0.281 -1.309,-0.492 -1.984,-0.625 -0.68,-0.145 -1.368,-0.219 -2.063,-0.219 -1.75,0 -3.137,0.504 -4.156,1.516 -1.012,1.019 -1.516,2.394 -1.516,4.125 0,1.789 0.477,3.211 1.438,4.265 0.968,1.051 2.273,1.578 3.922,1.578 1.468,0 2.628,-0.476 3.484,-1.421 0.851,-0.95 1.281,-2.235 1.281,-3.86 z m -1.797,0.531 c -0.011,0.977 -0.289,1.758 -0.828,2.344 -0.531,0.582 -1.242,0.875 -2.125,0.875 -1,0 -1.805,-0.281 -2.406,-0.844 -0.606,-0.562 -0.953,-1.359 -1.047,-2.39 z" />
        <path
           inkscape:connector-curvature="0"
           id="path4547"
           style="fill:#000000;fill-opacity:1;fill-rule:nonzero;stroke:none"
           d="m 349.699,13.425 c -0.199,0.113 -0.418,0.195 -0.656,0.25 -0.242,0.051 -0.5,0.078 -0.781,0.078 -1.024,0 -1.805,-0.328 -2.344,-0.984 -0.543,-0.657 -0.813,-1.606 -0.813,-2.844 V 4.159 h -1.812 v 10.938 h 1.812 v -1.703 c 0.375,0.664 0.864,1.16 1.469,1.484 0.602,0.32 1.344,0.484 2.219,0.484 0.113,0 0.242,-0.011 0.391,-0.031 0.156,-0.011 0.328,-0.031 0.515,-0.062 z" />
        <path
           inkscape:connector-curvature="0"
           id="path4549"
           style="fill:#000000;fill-opacity:1;fill-rule:nonzero;stroke:none"
           d="m 353.66,17.112 v -5.468 h 2.485 c 0.914,0 1.625,0.234 2.125,0.703 0.5,0.476 0.75,1.156 0.75,2.031 0,0.875 -0.25,1.547 -0.75,2.016 -0.5,0.476 -1.211,0.718 -2.125,0.718 z m -1.969,1.625 h 4.454 c 1.632,0 2.867,-0.371 3.703,-1.109 0.832,-0.742 1.25,-1.824 1.25,-3.25 0,-1.437 -0.418,-2.527 -1.25,-3.266 -0.836,-0.73 -2.071,-1.093 -3.703,-1.093 h -2.485 v -5.86 h -1.969 z" />
        <path
           inkscape:connector-curvature="0"
           id="path4551"
           style="fill:#000000;fill-opacity:1;fill-rule:nonzero;stroke:none"
           d="m 372.777,10.769 v -6.61 h -1.797 v 6.547 c 0,1.031 -0.203,1.801 -0.609,2.313 -0.406,0.519 -1.012,0.781 -1.812,0.781 -0.981,0 -1.75,-0.313 -2.313,-0.938 -0.555,-0.617 -0.828,-1.453 -0.828,-2.515 V 4.159 h -1.813 v 15.203 h 1.813 v -5.968 c 0.426,0.656 0.93,1.144 1.516,1.468 0.582,0.333 1.254,0.5 2.015,0.5 1.258,0 2.211,-0.39 2.86,-1.171 0.644,-0.774 0.968,-1.914 0.968,-3.422 z" />
        <path
           inkscape:connector-curvature="0"
           id="path4553"
           style="fill:#000000;fill-opacity:1;fill-rule:nonzero;stroke:none"
           d="m 376.379,15.097 h 1.797 V 4.159 h -1.797 z m 0,4.265 h 1.797 v -2.281 h -1.797 z" />
        <path
           inkscape:connector-curvature="0"
           id="path4555"
           style="fill:#000000;fill-opacity:1;fill-rule:nonzero;stroke:none"
           d="m 386.238,19.331 c -0.875,-1.492 -1.527,-2.969 -1.953,-4.437 -0.418,-1.469 -0.625,-2.953 -0.625,-4.453 0,-1.5 0.211,-2.993 0.641,-4.469 0.426,-1.481 1.07,-2.961 1.937,-4.453 h -1.562 c -0.981,1.531 -1.715,3.035 -2.203,4.515 -0.481,1.477 -0.719,2.946 -0.719,4.407 0,1.445 0.238,2.906 0.719,4.375 0.488,1.476 1.222,2.984 2.203,4.515 z" />
        <path
           inkscape:connector-curvature="0"
           id="path4557"
           style="fill:#000000;fill-opacity:1;fill-rule:nonzero;stroke:none"
           d="M 391.473,5.8 V 0.003 h -1.813 v 15.094 h 1.813 v -1.656 c 0.375,0.644 0.847,1.125 1.422,1.437 0.582,0.32 1.273,0.484 2.078,0.484 1.32,0 2.398,-0.531 3.234,-1.593 0.832,-1.055 1.25,-2.438 1.25,-4.157 0,-1.718 -0.418,-3.105 -1.25,-4.156 -0.836,-1.054 -1.914,-1.578 -3.234,-1.578 -0.805,0 -1.496,0.156 -2.078,0.469 -0.575,0.32 -1.047,0.805 -1.422,1.453 z m 6.109,3.812 c 0,1.321 -0.273,2.36 -0.812,3.11 -0.543,0.758 -1.29,1.14 -2.235,1.14 -0.961,0 -1.711,-0.382 -2.25,-1.14 -0.543,-0.75 -0.812,-1.789 -0.812,-3.11 0,-1.312 0.269,-2.351 0.812,-3.109 0.539,-0.75 1.289,-1.125 2.25,-1.125 0.945,0 1.692,0.375 2.235,1.125 0.539,0.758 0.812,1.797 0.812,3.109 z" />
        <path
           inkscape:connector-curvature="0"
           id="path4559"
           style="fill:#000000;fill-opacity:1;fill-rule:nonzero;stroke:none"
           d="m 408.762,13.425 c -0.2,0.113 -0.418,0.195 -0.657,0.25 -0.242,0.051 -0.5,0.078 -0.781,0.078 -1.023,0 -1.804,-0.328 -2.344,-0.984 -0.542,-0.657 -0.812,-1.606 -0.812,-2.844 V 4.159 h -1.813 v 10.938 h 1.813 v -1.703 c 0.375,0.664 0.863,1.16 1.469,1.484 0.601,0.32 1.343,0.484 2.218,0.484 0.114,0 0.243,-0.011 0.391,-0.031 0.156,-0.011 0.328,-0.031 0.516,-0.062 z" />
        <path
           inkscape:connector-curvature="0"
           id="path4561"
           style="fill:#000000;fill-opacity:1;fill-rule:nonzero;stroke:none"
           d="m 414.48,13.831 c -0.968,0 -1.734,-0.375 -2.296,-1.125 -0.555,-0.75 -0.829,-1.781 -0.829,-3.094 0,-1.304 0.274,-2.335 0.829,-3.093 0.562,-0.75 1.328,-1.125 2.296,-1.125 0.958,0 1.711,0.375 2.266,1.125 0.563,0.758 0.844,1.789 0.844,3.093 0,1.301 -0.281,2.329 -0.844,3.079 -0.555,0.757 -1.308,1.14 -2.266,1.14 z m 0,1.531 c 1.563,0 2.786,-0.511 3.672,-1.531 0.895,-1.011 1.344,-2.418 1.344,-4.219 0,-1.781 -0.449,-3.183 -1.344,-4.203 -0.886,-1.023 -2.109,-1.531 -3.672,-1.531 -1.574,0 -2.804,0.508 -3.687,1.531 -0.887,1.02 -1.328,2.422 -1.328,4.203 0,1.801 0.441,3.208 1.328,4.219 0.883,1.02 2.113,1.531 3.687,1.531 z" />
        <path
           inkscape:connector-curvature="0"
           id="path4563"
           style="fill:#000000;fill-opacity:1;fill-rule:nonzero;stroke:none"
           d="m 430.316,9.612 c 0,1.321 -0.273,2.36 -0.812,3.11 -0.543,0.758 -1.289,1.14 -2.234,1.14 -0.961,0 -1.711,-0.382 -2.25,-1.14 -0.543,-0.75 -0.813,-1.789 -0.813,-3.11 0,-1.312 0.27,-2.351 0.813,-3.109 0.539,-0.75 1.289,-1.125 2.25,-1.125 0.945,0 1.691,0.375 2.234,1.125 0.539,0.758 0.812,1.797 0.812,3.109 z m -6.109,3.829 c 0.375,0.644 0.848,1.125 1.422,1.437 0.582,0.32 1.273,0.484 2.078,0.484 1.32,0 2.398,-0.531 3.234,-1.593 0.832,-1.055 1.25,-2.438 1.25,-4.157 0,-1.718 -0.418,-3.105 -1.25,-4.156 -0.836,-1.054 -1.914,-1.578 -3.234,-1.578 -0.805,0 -1.496,0.156 -2.078,0.469 -0.574,0.32 -1.047,0.805 -1.422,1.453 V 4.159 h -1.812 v 15.203 h 1.812 z" />
        <path
           inkscape:connector-curvature="0"
           id="path4565"
           style="fill:#000000;fill-opacity:1;fill-rule:nonzero;stroke:none"
           d="M 444.512,10.081 V 9.206 h -8.25 c 0.07,-1.242 0.441,-2.187 1.109,-2.844 0.664,-0.648 1.598,-0.968 2.797,-0.968 0.687,0 1.352,0.082 2,0.25 0.644,0.176 1.289,0.429 1.937,0.765 V 4.722 c -0.648,-0.281 -1.308,-0.492 -1.984,-0.625 -0.68,-0.145 -1.367,-0.219 -2.062,-0.219 -1.75,0 -3.137,0.504 -4.157,1.516 -1.011,1.019 -1.515,2.394 -1.515,4.125 0,1.789 0.476,3.211 1.437,4.265 0.969,1.051 2.274,1.578 3.922,1.578 1.469,0 2.629,-0.476 3.484,-1.421 0.852,-0.95 1.282,-2.235 1.282,-3.86 z m -1.797,0.531 c -0.012,0.977 -0.289,1.758 -0.828,2.344 -0.532,0.582 -1.242,0.875 -2.125,0.875 -1,0 -1.805,-0.281 -2.407,-0.844 -0.605,-0.562 -0.953,-1.359 -1.046,-2.39 z" />
        <path
           inkscape:connector-curvature="0"
           id="path4567"
           style="fill:#000000;fill-opacity:1;fill-rule:nonzero;stroke:none"
           d="m 447.191,19.331 h 1.563 c 0.969,-1.531 1.691,-3.039 2.172,-4.515 0.488,-1.469 0.734,-2.93 0.734,-4.375 0,-1.461 -0.246,-2.93 -0.734,-4.407 -0.481,-1.48 -1.203,-2.984 -2.172,-4.515 h -1.563 c 0.864,1.492 1.508,2.972 1.938,4.453 0.426,1.476 0.641,2.969 0.641,4.469 0,1.5 -0.215,2.984 -0.641,4.453 -0.43,1.468 -1.074,2.945 -1.938,4.437 z" />
        <path
           inkscape:connector-curvature="0"
           id="path4569"
           style="fill:#000000;fill-opacity:1;fill-rule:nonzero;stroke:none"
           d="m 7.918,239.112 c 0,1.321 -0.273,2.36 -0.813,3.11 -0.543,0.758 -1.289,1.14 -2.234,1.14 -0.961,0 -1.711,-0.382 -2.25,-1.14 -0.543,-0.75 -0.812,-1.789 -0.812,-3.11 0,-1.312 0.269,-2.351 0.812,-3.109 0.539,-0.75 1.289,-1.125 2.25,-1.125 0.945,0 1.691,0.375 2.234,1.125 0.54,0.758 0.813,1.797 0.813,3.109 z m -6.109,3.829 c 0.375,0.644 0.847,1.125 1.421,1.437 0.582,0.32 1.274,0.484 2.079,0.484 1.32,0 2.398,-0.531 3.234,-1.593 0.832,-1.055 1.25,-2.438 1.25,-4.157 0,-1.718 -0.418,-3.105 -1.25,-4.156 -0.836,-1.054 -1.914,-1.578 -3.234,-1.578 -0.805,0 -1.497,0.156 -2.079,0.469 -0.574,0.32 -1.046,0.805 -1.421,1.453 v -1.641 h -1.813 v 15.203 h 1.813 z" />
        <path
           inkscape:connector-curvature="0"
           id="path4571"
           style="fill:#000000;fill-opacity:1;fill-rule:nonzero;stroke:none"
           d="m 14.723,235.316 h 6.875 v -1.657 h -9.25 v 1.657 c 0.75,0.781 1.769,1.82 3.062,3.125 1.289,1.3 2.102,2.144 2.438,2.531 0.625,0.707 1.062,1.305 1.312,1.797 0.25,0.488 0.375,0.972 0.375,1.453 0,0.769 -0.273,1.398 -0.812,1.89 -0.543,0.489 -1.25,0.735 -2.125,0.735 -0.618,0 -1.266,-0.11 -1.953,-0.328 -0.688,-0.211 -1.422,-0.532 -2.204,-0.969 v 1.984 c 0.789,0.321 1.532,0.563 2.219,0.719 0.695,0.164 1.332,0.25 1.906,0.25 1.508,0 2.711,-0.383 3.61,-1.141 0.894,-0.75 1.344,-1.757 1.344,-3.015 0,-0.606 -0.118,-1.18 -0.344,-1.719 -0.219,-0.531 -0.625,-1.164 -1.219,-1.891 -0.156,-0.187 -0.672,-0.734 -1.547,-1.64 -0.875,-0.899 -2.105,-2.156 -3.687,-3.781 z" />
        <path
           inkscape:connector-curvature="0"
           id="path4573"
           style="fill:#000000;fill-opacity:1;fill-rule:nonzero;stroke:none"
           d="m 33.348,239.112 c 0,1.321 -0.274,2.36 -0.813,3.11 -0.543,0.758 -1.289,1.14 -2.234,1.14 -0.961,0 -1.711,-0.382 -2.25,-1.14 -0.543,-0.75 -0.813,-1.789 -0.813,-3.11 0,-1.312 0.27,-2.351 0.813,-3.109 0.539,-0.75 1.289,-1.125 2.25,-1.125 0.945,0 1.691,0.375 2.234,1.125 0.539,0.758 0.813,1.797 0.813,3.109 z m -6.11,3.829 c 0.375,0.644 0.848,1.125 1.422,1.437 0.582,0.32 1.274,0.484 2.078,0.484 1.321,0 2.399,-0.531 3.235,-1.593 0.832,-1.055 1.25,-2.438 1.25,-4.157 0,-1.718 -0.418,-3.105 -1.25,-4.156 -0.836,-1.054 -1.914,-1.578 -3.235,-1.578 -0.804,0 -1.496,0.156 -2.078,0.469 -0.574,0.32 -1.047,0.805 -1.422,1.453 v -1.641 h -1.812 v 15.203 h 1.812 z" />
        <path
           inkscape:connector-curvature="0"
           id="path4575"
           style="fill:#000000;fill-opacity:1;fill-rule:nonzero;stroke:none"
           d="m 49.184,247.112 v -2.078 c -0.657,0.625 -1.368,1.086 -2.125,1.391 -0.75,0.301 -1.547,0.453 -2.391,0.453 -1.668,0 -2.945,-0.512 -3.828,-1.531 -0.887,-1.012 -1.328,-2.481 -1.328,-4.406 0,-1.93 0.441,-3.403 1.328,-4.422 0.883,-1.012 2.16,-1.516 3.828,-1.516 0.844,0 1.641,0.149 2.391,0.453 0.757,0.301 1.468,0.766 2.125,1.391 v -2.063 c -0.688,-0.468 -1.418,-0.824 -2.188,-1.062 -0.773,-0.227 -1.586,-0.344 -2.437,-0.344 -2.211,0 -3.95,0.672 -5.219,2.016 -1.274,1.351 -1.906,3.203 -1.906,5.547 0,2.343 0.632,4.187 1.906,5.531 1.269,1.351 3.008,2.031 5.219,2.031 0.863,0 1.679,-0.117 2.453,-0.344 0.769,-0.23 1.492,-0.578 2.172,-1.047 z" />
        <path
           inkscape:connector-curvature="0"
           id="path4577"
           style="fill:#000000;fill-opacity:1;fill-rule:nonzero;stroke:none"
           d="m 52.184,248.862 h 1.797 v -15.203 h -1.797 z" />
        <path
           inkscape:connector-curvature="0"
           id="path4579"
           style="fill:#000000;fill-opacity:1;fill-rule:nonzero;stroke:none"
           d="m 57.543,237.972 v 6.625 h 1.797 v -6.547 c 0,-1.043 0.195,-1.824 0.594,-2.344 0.406,-0.511 1.015,-0.765 1.828,-0.765 0.968,0 1.734,0.304 2.297,0.921 0.562,0.625 0.843,1.469 0.843,2.532 v 6.203 h 1.797 v -10.938 h -1.797 v 1.688 c -0.437,-0.668 -0.945,-1.164 -1.515,-1.485 -0.575,-0.32 -1.246,-0.484 -2.016,-0.484 -1.25,0 -2.203,0.391 -2.859,1.172 -0.649,0.781 -0.969,1.922 -0.969,3.422 z m 4.516,6.89 z" />
        <path
           inkscape:connector-curvature="0"
           id="path4581"
           style="fill:#000000;fill-opacity:1;fill-rule:nonzero;stroke:none"
           d="m 77.395,244.269 v -1.688 c -0.512,0.258 -1.043,0.453 -1.594,0.578 -0.543,0.133 -1.106,0.203 -1.688,0.203 -0.898,0 -1.57,-0.14 -2.015,-0.421 -0.438,-0.274 -0.657,-0.68 -0.657,-1.219 0,-0.418 0.157,-0.746 0.469,-0.985 0.32,-0.242 0.961,-0.468 1.922,-0.687 l 0.625,-0.125 c 1.27,-0.281 2.172,-0.672 2.703,-1.172 0.539,-0.492 0.813,-1.183 0.813,-2.078 0,-1.012 -0.403,-1.813 -1.203,-2.406 -0.805,-0.594 -1.907,-0.891 -3.313,-0.891 -0.586,0 -1.195,0.059 -1.828,0.172 -0.637,0.113 -1.309,0.285 -2.016,0.516 v 1.843 c 0.664,-0.343 1.321,-0.605 1.969,-0.781 0.645,-0.168 1.285,-0.25 1.922,-0.25 0.844,0 1.488,0.145 1.937,0.438 0.457,0.289 0.688,0.695 0.688,1.218 0,0.489 -0.168,0.864 -0.5,1.125 -0.324,0.258 -1.043,0.508 -2.156,0.75 l -0.625,0.157 c -1.118,0.226 -1.922,0.582 -2.422,1.062 -0.492,0.488 -0.735,1.16 -0.735,2.016 0,1.019 0.364,1.812 1.094,2.375 0.727,0.562 1.766,0.843 3.11,0.843 0.664,0 1.289,-0.054 1.875,-0.156 0.582,-0.094 1.125,-0.242 1.625,-0.437 z" />
        <path
           inkscape:connector-curvature="0"
           id="path4583"
           style="fill:#000000;fill-opacity:1;fill-rule:nonzero;stroke:none"
           d="m 82.621,247.706 v -3.109 h 3.703 v -1.391 h -3.703 v -5.937 c 0,-0.899 0.117,-1.477 0.359,-1.735 0.25,-0.25 0.75,-0.375 1.5,-0.375 h 1.844 v -1.5 H 84.48 c -1.386,0 -2.343,0.254 -2.875,0.766 -0.523,0.52 -0.781,1.469 -0.781,2.844 v 5.937 h -1.328 v 1.391 h 1.328 v 3.109 z" />
        <path
           inkscape:connector-curvature="0"
           id="path4585"
           style="fill:#000000;fill-opacity:1;fill-rule:nonzero;stroke:none"
           d="m 98.051,239.581 v -0.875 h -8.25 c 0.07,-1.242 0.441,-2.187 1.109,-2.844 0.664,-0.648 1.598,-0.968 2.797,-0.968 0.688,0 1.352,0.082 2,0.25 0.645,0.176 1.289,0.429 1.938,0.765 v -1.687 c -0.649,-0.281 -1.309,-0.492 -1.985,-0.625 -0.68,-0.145 -1.367,-0.219 -2.062,-0.219 -1.75,0 -3.137,0.504 -4.157,1.516 -1.011,1.019 -1.515,2.394 -1.515,4.125 0,1.789 0.476,3.211 1.437,4.265 0.969,1.051 2.274,1.578 3.922,1.578 1.469,0 2.629,-0.476 3.485,-1.421 0.851,-0.95 1.281,-2.235 1.281,-3.86 z m -1.797,0.531 c -0.012,0.977 -0.289,1.758 -0.828,2.344 -0.531,0.582 -1.242,0.875 -2.125,0.875 -1,0 -1.805,-0.281 -2.406,-0.844 -0.606,-0.562 -0.954,-1.359 -1.047,-2.39 z" />
        <path
           inkscape:connector-curvature="0"
           id="path4587"
           style="fill:#000000;fill-opacity:1;fill-rule:nonzero;stroke:none"
           d="m 107.34,242.925 c -0.199,0.113 -0.418,0.195 -0.656,0.25 -0.243,0.051 -0.5,0.078 -0.782,0.078 -1.023,0 -1.804,-0.328 -2.343,-0.984 -0.543,-0.657 -0.813,-1.606 -0.813,-2.844 v -5.766 h -1.812 v 10.938 h 1.812 v -1.703 c 0.375,0.664 0.863,1.16 1.469,1.484 0.601,0.32 1.344,0.484 2.219,0.484 0.113,0 0.242,-0.011 0.39,-0.031 0.156,-0.011 0.328,-0.031 0.516,-0.062 z" />
        <path
           inkscape:connector-curvature="0"
           id="path4589"
           style="fill:#000000;fill-opacity:1;fill-rule:nonzero;stroke:none"
           d="m 111.301,246.612 v -5.468 h 2.484 c 0.914,0 1.625,0.234 2.125,0.703 0.5,0.476 0.75,1.156 0.75,2.031 0,0.875 -0.25,1.547 -0.75,2.016 -0.5,0.476 -1.211,0.718 -2.125,0.718 z m -1.969,1.625 h 4.453 c 1.633,0 2.867,-0.371 3.703,-1.109 0.832,-0.742 1.25,-1.824 1.25,-3.25 0,-1.437 -0.418,-2.527 -1.25,-3.266 -0.836,-0.73 -2.07,-1.093 -3.703,-1.093 h -2.484 v -5.86 h -1.969 z" />
        <path
           inkscape:connector-curvature="0"
           id="path4591"
           style="fill:#000000;fill-opacity:1;fill-rule:nonzero;stroke:none"
           d="m 130.418,240.269 v -6.61 h -1.797 v 6.547 c 0,1.031 -0.203,1.801 -0.609,2.313 -0.407,0.519 -1.012,0.781 -1.813,0.781 -0.98,0 -1.75,-0.313 -2.312,-0.938 -0.555,-0.617 -0.828,-1.453 -0.828,-2.515 v -6.188 h -1.813 v 15.203 h 1.813 v -5.968 c 0.425,0.656 0.929,1.144 1.515,1.468 0.582,0.333 1.254,0.5 2.016,0.5 1.258,0 2.211,-0.39 2.859,-1.171 0.645,-0.774 0.969,-1.914 0.969,-3.422 z" />
        <path
           inkscape:connector-curvature="0"
           id="path4593"
           style="fill:#000000;fill-opacity:1;fill-rule:nonzero;stroke:none"
           d="m 134.02,244.597 h 1.796 v -10.938 h -1.796 z m 0,4.265 h 1.796 v -2.281 h -1.796 z" />
        <g
           transform="matrix(1,0,0,-1,0,244.35466)"
           id="g4605">
          <path
             inkscape:connector-curvature="0"
             id="path4607"
             style="fill:none;stroke:#ff0000;stroke-width:1.17835104;stroke-linecap:butt;stroke-linejoin:miter;stroke-miterlimit:4;stroke-dasharray:none;stroke-opacity:1"
             d="M 238.949,121.293 C 239.02,81.281 256.133,43.188 286.016,16.52" />
        </g>
        <g
           transform="matrix(1,0,0,-1,0,244.35466)"
           id="g4609">
          <path
             inkscape:connector-curvature="0"
             id="path4611"
             style="fill:none;stroke:#0000ff;stroke-width:1.17835104;stroke-linecap:butt;stroke-linejoin:miter;stroke-miterlimit:4;stroke-dasharray:none;stroke-opacity:1"
             d="M 284.555,225.234 C 255.488,198.559 238.949,160.949 238.949,121.539" />
        </g>
        <g
           transform="matrix(1,0,0,-1,0,244.35466)"
           id="g4613">
          <path
             inkscape:connector-curvature="0"
             id="path4615"
             style="fill:#1a1a1a;fill-opacity:1;fill-rule:evenodd;stroke:#000000;stroke-width:0.62001199;stroke-linecap:butt;stroke-linejoin:miter;stroke-miterlimit:4;stroke-dasharray:none;stroke-opacity:1"
             d="m 240.828,121.566 c 0,0.954 -0.773,1.723 -1.726,1.723 -0.954,0 -1.727,-0.769 -1.727,-1.723 0,-0.953 0.773,-1.726 1.727,-1.726 0.953,0 1.726,0.773 1.726,1.726 z" />
        </g>
        <path
           inkscape:connector-curvature="0"
           id="path4617"
           style="fill:#000000;fill-opacity:1;fill-rule:nonzero;stroke:none"
           d="m 220.293,130.409 h 1.969 v -14.578 h -1.969 z" />
        <path
           inkscape:connector-curvature="0"
           id="path4619"
           style="fill:#000000;fill-opacity:1;fill-rule:nonzero;stroke:none"
           d="m 228.16,128.784 v -5.468 h 2.485 c 0.914,0 1.625,0.234 2.125,0.703 0.5,0.476 0.75,1.156 0.75,2.031 0,0.875 -0.25,1.547 -0.75,2.016 -0.5,0.476 -1.211,0.718 -2.125,0.718 z m -1.969,1.625 h 4.454 c 1.632,0 2.867,-0.371 3.703,-1.109 0.832,-0.742 1.25,-1.824 1.25,-3.25 0,-1.438 -0.418,-2.527 -1.25,-3.266 -0.836,-0.73 -2.071,-1.093 -3.703,-1.093 h -2.485 v -5.86 h -1.969 z" />
        <path
           inkscape:connector-curvature="0"
           id="path4555-2"
           style="fill:#000000;fill-opacity:1;fill-rule:nonzero;stroke:none;stroke-width:0.99999994"
           d="m 143.09843,250.50865 c -0.875,-1.492 -1.527,-2.969 -1.953,-4.437 -0.418,-1.469 -0.625,-2.953 -0.625,-4.453 0,-1.5 0.211,-2.993 0.641,-4.469 0.426,-1.481 1.07,-2.961 1.937,-4.453 h -1.562 c -0.981,1.531 -1.715,3.035 -2.203,4.515 -0.481,1.477 -0.719,2.946 -0.719,4.407 0,1.445 0.238,2.906 0.719,4.375 0.488,1.476 1.222,2.984 2.203,4.515 z" />
        <path
           inkscape:connector-curvature="0"
           id="path4557-9"
           style="fill:#000000;fill-opacity:1;fill-rule:nonzero;stroke:none;stroke-width:0.99999994"
           d="m 148.33343,236.97765 v -5.797 h -1.813 v 15.094 h 1.813 v -1.656 c 0.375,0.644 0.847,1.125 1.422,1.437 0.582,0.32 1.273,0.484 2.078,0.484 1.32,0 2.398,-0.531 3.234,-1.593 0.832,-1.055 1.25,-2.438 1.25,-4.157 0,-1.718 -0.418,-3.105 -1.25,-4.156 -0.836,-1.054 -1.914,-1.578 -3.234,-1.578 -0.805,0 -1.496,0.156 -2.078,0.469 -0.575,0.32 -1.047,0.805 -1.422,1.453 z m 6.109,3.812 c 0,1.321 -0.273,2.36 -0.812,3.11 -0.543,0.758 -1.29,1.14 -2.235,1.14 -0.961,0 -1.711,-0.382 -2.25,-1.14 -0.543,-0.75 -0.812,-1.789 -0.812,-3.11 0,-1.312 0.269,-2.351 0.812,-3.109 0.539,-0.75 1.289,-1.125 2.25,-1.125 0.945,0 1.692,0.375 2.235,1.125 0.539,0.758 0.812,1.797 0.812,3.109 z" />
        <path
           inkscape:connector-curvature="0"
           id="path4559-1"
           style="fill:#000000;fill-opacity:1;fill-rule:nonzero;stroke:none;stroke-width:0.99999994"
           d="m 165.62243,244.60265 c -0.2,0.113 -0.418,0.195 -0.657,0.25 -0.242,0.051 -0.5,0.078 -0.781,0.078 -1.023,0 -1.804,-0.328 -2.344,-0.984 -0.542,-0.657 -0.812,-1.606 -0.812,-2.844 v -5.766 h -1.813 v 10.938 h 1.813 v -1.703 c 0.375,0.664 0.863,1.16 1.469,1.484 0.601,0.32 1.343,0.484 2.218,0.484 0.114,0 0.243,-0.011 0.391,-0.031 0.156,-0.011 0.328,-0.031 0.516,-0.062 z" />
        <path
           inkscape:connector-curvature="0"
           id="path4561-2"
           style="fill:#000000;fill-opacity:1;fill-rule:nonzero;stroke:none;stroke-width:0.99999994"
           d="m 171.34043,245.00865 c -0.968,0 -1.734,-0.375 -2.296,-1.125 -0.555,-0.75 -0.829,-1.781 -0.829,-3.094 0,-1.304 0.274,-2.335 0.829,-3.093 0.562,-0.75 1.328,-1.125 2.296,-1.125 0.958,0 1.711,0.375 2.266,1.125 0.563,0.758 0.844,1.789 0.844,3.093 0,1.301 -0.281,2.329 -0.844,3.079 -0.555,0.757 -1.308,1.14 -2.266,1.14 z m 0,1.531 c 1.563,0 2.786,-0.511 3.672,-1.531 0.895,-1.011 1.344,-2.418 1.344,-4.219 0,-1.781 -0.449,-3.183 -1.344,-4.203 -0.886,-1.023 -2.109,-1.531 -3.672,-1.531 -1.574,0 -2.804,0.508 -3.687,1.531 -0.887,1.02 -1.328,2.422 -1.328,4.203 0,1.801 0.441,3.208 1.328,4.219 0.883,1.02 2.113,1.531 3.687,1.531 z" />
        <path
           inkscape:connector-curvature="0"
           id="path4563-7"
           style="fill:#000000;fill-opacity:1;fill-rule:nonzero;stroke:none;stroke-width:0.99999994"
           d="m 187.17643,240.78965 c 0,1.321 -0.273,2.36 -0.812,3.11 -0.543,0.758 -1.289,1.14 -2.234,1.14 -0.961,0 -1.711,-0.382 -2.25,-1.14 -0.543,-0.75 -0.813,-1.789 -0.813,-3.11 0,-1.312 0.27,-2.351 0.813,-3.109 0.539,-0.75 1.289,-1.125 2.25,-1.125 0.945,0 1.691,0.375 2.234,1.125 0.539,0.758 0.812,1.797 0.812,3.109 z m -6.109,3.829 c 0.375,0.644 0.848,1.125 1.422,1.437 0.582,0.32 1.273,0.484 2.078,0.484 1.32,0 2.398,-0.531 3.234,-1.593 0.832,-1.055 1.25,-2.438 1.25,-4.157 0,-1.718 -0.418,-3.105 -1.25,-4.156 -0.836,-1.054 -1.914,-1.578 -3.234,-1.578 -0.805,0 -1.496,0.156 -2.078,0.469 -0.574,0.32 -1.047,0.805 -1.422,1.453 v -1.641 h -1.812 v 15.203 h 1.812 z" />
        <path
           inkscape:connector-curvature="0"
           id="path4565-0"
           style="fill:#000000;fill-opacity:1;fill-rule:nonzero;stroke:none;stroke-width:0.99999994"
           d="m 201.37243,241.25865 v -0.875 h -8.25 c 0.07,-1.242 0.441,-2.187 1.109,-2.844 0.664,-0.648 1.598,-0.968 2.797,-0.968 0.687,0 1.352,0.082 2,0.25 0.644,0.176 1.289,0.429 1.937,0.765 v -1.687 c -0.648,-0.281 -1.308,-0.492 -1.984,-0.625 -0.68,-0.145 -1.367,-0.219 -2.062,-0.219 -1.75,0 -3.137,0.504 -4.157,1.516 -1.011,1.019 -1.515,2.394 -1.515,4.125 0,1.789 0.476,3.211 1.437,4.265 0.969,1.051 2.274,1.578 3.922,1.578 1.469,0 2.629,-0.476 3.484,-1.421 0.852,-0.95 1.282,-2.235 1.282,-3.86 z m -1.797,0.531 c -0.012,0.977 -0.289,1.758 -0.828,2.344 -0.532,0.582 -1.242,0.875 -2.125,0.875 -1,0 -1.805,-0.281 -2.407,-0.844 -0.605,-0.562 -0.953,-1.359 -1.046,-2.39 z" />
        <path
           inkscape:connector-curvature="0"
           id="path4567-9"
           style="fill:#000000;fill-opacity:1;fill-rule:nonzero;stroke:none;stroke-width:0.99999994"
           d="m 204.05143,250.50865 h 1.563 c 0.969,-1.531 1.691,-3.039 2.172,-4.515 0.488,-1.469 0.734,-2.93 0.734,-4.375 0,-1.461 -0.246,-2.93 -0.734,-4.407 -0.481,-1.48 -1.203,-2.984 -2.172,-4.515 h -1.563 c 0.864,1.492 1.508,2.972 1.938,4.453 0.426,1.476 0.641,2.969 0.641,4.469 0,1.5 -0.215,2.984 -0.641,4.453 -0.43,1.468 -1.074,2.945 -1.938,4.437 z" />
      </g>
    </g>
  </g>
</svg>
