<?xml version="1.0" encoding="UTF-8" standalone="no"?>
<!-- Created with Inkscape (http://www.inkscape.org/) -->

<svg
   xmlns:dc="http://purl.org/dc/elements/1.1/"
   xmlns:cc="http://creativecommons.org/ns#"
   xmlns:rdf="http://www.w3.org/1999/02/22-rdf-syntax-ns#"
   xmlns:svg="http://www.w3.org/2000/svg"
   xmlns="http://www.w3.org/2000/svg"
   xmlns:sodipodi="http://sodipodi.sourceforge.net/DTD/sodipodi-0.dtd"
   xmlns:inkscape="http://www.inkscape.org/namespaces/inkscape"
   width="159.33702mm"
   height="88.383759mm"
   viewBox="0 0 159.33702 88.383758"
   version="1.1"
   id="svg8"
   inkscape:version="0.92.1 r15371"
   sodipodi:docname="b2b_2.svg">
  <defs
     id="defs2" />
  <sodipodi:namedview
     id="base"
     pagecolor="#ffffff"
     bordercolor="#666666"
     borderopacity="1.0"
     inkscape:pageopacity="0.0"
     inkscape:pageshadow="2"
     inkscape:zoom="2.5593136"
     inkscape:cx="345.99772"
     inkscape:cy="64.540878"
     inkscape:document-units="mm"
     inkscape:current-layer="g4495"
     showgrid="false"
     fit-margin-top="0"
     fit-margin-left="0"
     fit-margin-right="0"
     fit-margin-bottom="0"
     inkscape:window-width="1920"
     inkscape:window-height="1141"
     inkscape:window-x="0"
     inkscape:window-y="26"
     inkscape:window-maximized="1" />
  <metadata
     id="metadata5">
    <rdf:RDF>
      <cc:Work
         rdf:about="">
        <dc:format>image/svg+xml</dc:format>
        <dc:type
           rdf:resource="http://purl.org/dc/dcmitype/StillImage" />
        <dc:title></dc:title>
      </cc:Work>
    </rdf:RDF>
  </metadata>
  <g
     inkscape:label="Layer 1"
     inkscape:groupmode="layer"
     id="layer1"
     transform="translate(-37.504106,-98.202971)">
    <g
       transform="matrix(0.35277777,0,0,-0.35277777,37.505517,186.58779)"
       inkscape:label="b2b_2"
       id="g4493">
      <g
         id="g4495">
        <g
           transform="matrix(1,0,0,-1,0,244.35466)"
           id="g4497">
          <path
             inkscape:connector-curvature="0"
             id="path4499"
             style="fill:#ffffff;fill-opacity:1;fill-rule:evenodd;stroke:#000000;stroke-width:0.69993597;stroke-linecap:butt;stroke-linejoin:miter;stroke-miterlimit:4;stroke-dasharray:none;stroke-opacity:1"
             d="m 360.973,121.293 c 0,62.133 -54.633,112.5 -122.024,112.5 -67.39,0 -122.023,-50.367 -122.023,-112.5 0,-62.133 54.633,-112.5 122.023,-112.5 67.391,0 122.024,50.367 122.024,112.5 z" />
        </g>
        <g
           transform="matrix(0.99254045,0,0,-1.0102307,2.1345366,244.52333)"
           id="g4531">
          <path
             inkscape:connector-curvature="0"
             id="path4533"
             style="fill:none;stroke:#008000;stroke-width:0.78037298;stroke-linecap:butt;stroke-linejoin:miter;stroke-miterlimit:4;stroke-dasharray:none;stroke-opacity:1"
             d="M 286.008,16.523 192.629,225.414" />
        </g>
        <g
           transform="matrix(1,0,0,-1,0,244.35466)"
           id="g4605">
          <path
             inkscape:connector-curvature="0"
             id="path4607"
             style="fill:none;stroke:#ff0000;stroke-width:1.17835104;stroke-linecap:butt;stroke-linejoin:miter;stroke-miterlimit:4;stroke-dasharray:none;stroke-opacity:1"
             d="M 238.949,121.293 C 239.02,81.281 256.133,43.188 286.016,16.52" />
        </g>
        <g
           transform="matrix(1,0,0,-1,0,244.35466)"
           id="g4609">
          <path
             inkscape:connector-curvature="0"
             id="path4611"
             style="fill:none;stroke:#0000ff;stroke-width:1.17835104;stroke-linecap:butt;stroke-linejoin:miter;stroke-miterlimit:4;stroke-dasharray:none;stroke-opacity:1"
             d="M 284.555,225.234 C 255.488,198.559 238.949,160.949 238.949,121.539" />
        </g>
        <g
           transform="matrix(1,0,0,-1,0,244.35466)"
           id="g4613">
          <path
             inkscape:connector-curvature="0"
             id="path4615"
             style="fill:#1a1a1a;fill-opacity:1;fill-rule:evenodd;stroke:#000000;stroke-width:0.62001199;stroke-linecap:butt;stroke-linejoin:miter;stroke-miterlimit:4;stroke-dasharray:none;stroke-opacity:1"
             d="m 240.828,121.566 c 0,0.954 -0.773,1.723 -1.726,1.723 -0.954,0 -1.727,-0.769 -1.727,-1.723 0,-0.953 0.773,-1.726 1.727,-1.726 0.953,0 1.726,0.773 1.726,1.726 z" />
        </g>
        <path
           inkscape:connector-curvature="0"
           id="path4617"
           style="fill:#000000;fill-opacity:1;fill-rule:nonzero;stroke:none"
           d="m 220.293,130.409 h 1.969 v -14.578 h -1.969 z" />
        <path
           inkscape:connector-curvature="0"
           id="path4619"
           style="fill:#000000;fill-opacity:1;fill-rule:nonzero;stroke:none"
           d="m 228.16,128.784 v -5.468 h 2.485 c 0.914,0 1.625,0.234 2.125,0.703 0.5,0.476 0.75,1.156 0.75,2.031 0,0.875 -0.25,1.547 -0.75,2.016 -0.5,0.476 -1.211,0.718 -2.125,0.718 z m -1.969,1.625 h 4.454 c 1.632,0 2.867,-0.371 3.703,-1.109 0.832,-0.742 1.25,-1.824 1.25,-3.25 0,-1.438 -0.418,-2.527 -1.25,-3.266 -0.836,-0.73 -2.071,-1.093 -3.703,-1.093 h -2.485 v -5.86 h -1.969 z" />
        <text
           xml:space="preserve"
           style="font-style:normal;font-weight:normal;font-size:20px;line-height:1.25;font-family:sans-serif;letter-spacing:0px;word-spacing:0px;fill:#000000;fill-opacity:1;stroke:none;stroke-width:0.75"
           x="283.34381"
           y="-229.56018"
           id="text4550"
           transform="scale(1,-1)"><tspan
             sodipodi:role="line"
             id="tspan4548"
             x="283.34381"
             y="-229.56018"
             style="stroke-width:0.75">clusterPhi(HclE)</tspan></text>
        <text
           xml:space="preserve"
           style="font-style:normal;font-weight:normal;font-size:20px;line-height:1.25;font-family:sans-serif;letter-spacing:0px;word-spacing:0px;fill:#000000;fill-opacity:1;stroke:none;stroke-width:0.75"
           x="284.95038"
           y="-1.5791402"
           id="text4554"
           transform="scale(1,-1)"><tspan
             sodipodi:role="line"
             id="tspan4552"
             x="284.95038"
             y="-1.5791402"
             style="stroke-width:0.75">clusterPhi(LclE)</tspan></text>
        <text
           xml:space="preserve"
           style="font-style:normal;font-weight:normal;font-size:20px;line-height:1.25;font-family:sans-serif;letter-spacing:0px;word-spacing:0px;fill:#000000;fill-opacity:1;stroke:none;stroke-width:0.75"
           x="-1.5192299"
           y="-0.80256647"
           id="text4558"
           transform="scale(1,-1)"><tspan
             sodipodi:role="line"
             id="tspan4556"
             x="-1.5192299"
             y="-0.80256647"
             style="stroke-width:0.75">b2bClusterPhi(HclE)</tspan></text>
      </g>
    </g>
  </g>
</svg>
